

<svg version="1.1" xmlns="http://www.w3.org/2000/svg" xmlns:xlink="http://www.w3.org/1999/xlink" x="0px" y="0px" viewBox="0 0 256 256" enable-background="new 0 0 256 256" xml:space="preserve">

<g><g><g><path fill="#000000" d="M120.6,35.3C93,38.9,69.5,58.7,62,84.7l-1.4,4.7l-8.1,0.1c-7,0-8.6,0.2-12.7,1.6C33,93.2,28,96.3,22.7,101.7c-5.5,5.5-8,9.5-10.4,16.5c-8.4,24.2,7.1,50.7,32.4,55.6c3.3,0.6,10,0.8,27.6,0.8c22.5,0,23.2-0.1,24.7-1.2c2-1.6,2.2-5.1,0.3-6.8c-1.2-1.1-2.7-1.1-26.4-1.4l-25.1-0.4l-4-1.5c-5.5-2.1-9.3-4.7-13.4-9.1c-6.3-6.8-9.3-15-8.7-24.2c0.5-9,3.8-16,10.3-22.2c6.1-5.9,12.5-8.6,21.1-9.1c5.1-0.3,7.8,0.1,16,2.5c1.2,0.4,1.3,0.1,1.7-3.1c4.8-41.2,49.1-65.6,86.3-47.7c6.3,3.1,13.6,8.4,17.9,13.1c3.2,3.5,8.5,11.2,10.3,15l1,2.1l3.4-0.6c5.3-0.8,13.9-0.1,19.2,1.6c6.7,2.1,11.6,5.3,17.1,10.7c5.4,5.4,8.4,10.3,10.7,17.1c1.4,4.2,1.6,5.6,1.6,13c0,7.4-0.2,8.7-1.6,13c-5,15-17.5,26-32.6,29c-3.2,0.6-9.1,0.8-21.8,0.8c-11.6,0-17.8,0.2-18.8,0.7c-0.8,0.4-1.8,1.5-2.2,2.4c-0.9,2.2,0.5,5.5,2.7,6.1c0.8,0.2,10.3,0.2,21.1,0.1c17.9-0.2,20.1-0.4,24.1-1.5c23.4-6.6,38.9-26.8,38.9-50.6c0-28.6-23.4-52.2-51.7-52.2h-4.7l-3.3-4.9c-10.2-14.9-26.4-25.6-44.3-29C135.9,35,126,34.6,120.6,35.3z"/><path fill="#000000" d="M111.7,129.2c-9,7.8-16.9,15-17.5,16c-1.8,3.3,0.2,6.4,4.2,6.4c1.5,0,3.9-1.8,13.2-9.8L123,132l0.3,43.2l0.3,43.2l1.7,1.5c2.1,1.7,4.7,1.5,6.4-0.5c0.9-1.2,1-4.2,1-44.3c0-23.7,0.2-43,0.5-43c0.2,0,5.5,4.4,11.6,9.7c10,8.6,11.4,9.7,13.3,9.7c2.6,0,4.7-1.9,4.7-4.5c0-1.3-0.7-2.4-2.8-4.4c-2.2-2.1-22.3-19.6-30.3-26.3l-1.5-1.3L111.7,129.2z"/></g></g></g>
</svg>